<svg xmlns="http://www.w3.org/2000/svg" width="1320" height="520" viewBox="0 0 1320 520">
<rect width="100%" height="100%" fill="#ffffff"/>
<text x="40.0" y="38.0" font-size="22" font-family="Arial, sans-serif" text-anchor="start" fill="#111827">JaWildText scaling curves by model family</text>
<text x="40.0" y="64.0" font-size="13" font-family="Arial, sans-serif" text-anchor="start" fill="#111827">Dense STVQA uses gpt-oss-20b; x-axis is total model parameters on a log scale.</text>
<rect x="70" y="92" width="370" height="330" fill="#fafafa" stroke="#d1d5db"/>
<text x="70.0" y="76.0" font-size="16" font-family="Arial, sans-serif" text-anchor="start" fill="#111827">Dense STVQA</text>
<line x1="70" y1="422.0" x2="440" y2="422.0" stroke="#e5e7eb"/>
<text x="60.0" y="426.0" font-size="11" font-family="Arial, sans-serif" text-anchor="end" fill="#111827">0.00</text>
<line x1="70" y1="339.5" x2="440" y2="339.5" stroke="#e5e7eb"/>
<text x="60.0" y="343.5" font-size="11" font-family="Arial, sans-serif" text-anchor="end" fill="#111827">0.25</text>
<line x1="70" y1="257.0" x2="440" y2="257.0" stroke="#e5e7eb"/>
<text x="60.0" y="261.0" font-size="11" font-family="Arial, sans-serif" text-anchor="end" fill="#111827">0.50</text>
<line x1="70" y1="174.5" x2="440" y2="174.5" stroke="#e5e7eb"/>
<text x="60.0" y="178.5" font-size="11" font-family="Arial, sans-serif" text-anchor="end" fill="#111827">0.75</text>
<line x1="70" y1="92.0" x2="440" y2="92.0" stroke="#e5e7eb"/>
<text x="60.0" y="96.0" font-size="11" font-family="Arial, sans-serif" text-anchor="end" fill="#111827">1.00</text>
<line x1="70.0" y1="92" x2="70.0" y2="422" stroke="#e5e7eb"/>
<text x="70.0" y="442.0" font-size="11" font-family="Arial, sans-serif" text-anchor="middle" fill="#111827">1B</text>
<line x1="128.9" y1="92" x2="128.9" y2="422" stroke="#e5e7eb"/>
<text x="128.9" y="442.0" font-size="11" font-family="Arial, sans-serif" text-anchor="middle" fill="#111827">2B</text>
<line x1="187.7" y1="92" x2="187.7" y2="422" stroke="#e5e7eb"/>
<text x="187.7" y="442.0" font-size="11" font-family="Arial, sans-serif" text-anchor="middle" fill="#111827">4B</text>
<line x1="246.6" y1="92" x2="246.6" y2="422" stroke="#e5e7eb"/>
<text x="246.6" y="442.0" font-size="11" font-family="Arial, sans-serif" text-anchor="middle" fill="#111827">8B</text>
<line x1="305.5" y1="92" x2="305.5" y2="422" stroke="#e5e7eb"/>
<text x="305.5" y="442.0" font-size="11" font-family="Arial, sans-serif" text-anchor="middle" fill="#111827">16B</text>
<line x1="364.3" y1="92" x2="364.3" y2="422" stroke="#e5e7eb"/>
<text x="364.3" y="442.0" font-size="11" font-family="Arial, sans-serif" text-anchor="middle" fill="#111827">32B</text>
<line x1="433.2" y1="92" x2="433.2" y2="422" stroke="#e5e7eb"/>
<text x="433.2" y="442.0" font-size="11" font-family="Arial, sans-serif" text-anchor="middle" fill="#111827">72B</text>
<path d="M 128.9 301.6 L 187.7 232.4 L 246.6 202.4" fill="none" stroke="#2563eb" stroke-width="2.4"/>
<circle cx="128.9" cy="301.6" r="3.8" fill="#2563eb"/>
<circle cx="187.7" cy="232.4" r="3.8" fill="#2563eb"/>
<circle cx="246.6" cy="202.4" r="3.8" fill="#2563eb"/>
<path d="M 70.0 368.2 L 128.9 335.4 L 187.7 310.3 L 246.6 283.6 L 294.1 315.8 L 378.9 288.1" fill="none" stroke="#dc2626" stroke-width="2.4"/>
<circle cx="70.0" cy="368.2" r="3.8" fill="#dc2626"/>
<circle cx="128.9" cy="335.4" r="3.8" fill="#dc2626"/>
<circle cx="187.7" cy="310.3" r="3.8" fill="#dc2626"/>
<circle cx="246.6" cy="283.6" r="3.8" fill="#dc2626"/>
<circle cx="294.1" cy="315.8" r="3.8" fill="#dc2626"/>
<circle cx="378.9" cy="288.1" r="3.8" fill="#dc2626"/>
<path d="M 187.7 365.0 L 281.0 309.3 L 349.9 289.0" fill="none" stroke="#16a34a" stroke-width="2.4"/>
<circle cx="187.7" cy="365.0" r="3.8" fill="#16a34a"/>
<circle cx="281.0" cy="309.3" r="3.8" fill="#16a34a"/>
<circle cx="349.9" cy="289.0" r="3.8" fill="#16a34a"/>
<text x="255.0" y="470.0" font-size="12" font-family="Arial, sans-serif" text-anchor="middle" fill="#111827">Parameters</text>
<rect x="485" y="92" width="370" height="330" fill="#fafafa" stroke="#d1d5db"/>
<text x="485.0" y="76.0" font-size="16" font-family="Arial, sans-serif" text-anchor="start" fill="#111827">Handwriting OCR</text>
<line x1="485" y1="422.0" x2="855" y2="422.0" stroke="#e5e7eb"/>
<text x="475.0" y="426.0" font-size="11" font-family="Arial, sans-serif" text-anchor="end" fill="#111827">0.00</text>
<line x1="485" y1="339.5" x2="855" y2="339.5" stroke="#e5e7eb"/>
<text x="475.0" y="343.5" font-size="11" font-family="Arial, sans-serif" text-anchor="end" fill="#111827">0.25</text>
<line x1="485" y1="257.0" x2="855" y2="257.0" stroke="#e5e7eb"/>
<text x="475.0" y="261.0" font-size="11" font-family="Arial, sans-serif" text-anchor="end" fill="#111827">0.50</text>
<line x1="485" y1="174.5" x2="855" y2="174.5" stroke="#e5e7eb"/>
<text x="475.0" y="178.5" font-size="11" font-family="Arial, sans-serif" text-anchor="end" fill="#111827">0.75</text>
<line x1="485" y1="92.0" x2="855" y2="92.0" stroke="#e5e7eb"/>
<text x="475.0" y="96.0" font-size="11" font-family="Arial, sans-serif" text-anchor="end" fill="#111827">1.00</text>
<line x1="485.0" y1="92" x2="485.0" y2="422" stroke="#e5e7eb"/>
<text x="485.0" y="442.0" font-size="11" font-family="Arial, sans-serif" text-anchor="middle" fill="#111827">1B</text>
<line x1="543.9" y1="92" x2="543.9" y2="422" stroke="#e5e7eb"/>
<text x="543.9" y="442.0" font-size="11" font-family="Arial, sans-serif" text-anchor="middle" fill="#111827">2B</text>
<line x1="602.7" y1="92" x2="602.7" y2="422" stroke="#e5e7eb"/>
<text x="602.7" y="442.0" font-size="11" font-family="Arial, sans-serif" text-anchor="middle" fill="#111827">4B</text>
<line x1="661.6" y1="92" x2="661.6" y2="422" stroke="#e5e7eb"/>
<text x="661.6" y="442.0" font-size="11" font-family="Arial, sans-serif" text-anchor="middle" fill="#111827">8B</text>
<line x1="720.5" y1="92" x2="720.5" y2="422" stroke="#e5e7eb"/>
<text x="720.5" y="442.0" font-size="11" font-family="Arial, sans-serif" text-anchor="middle" fill="#111827">16B</text>
<line x1="779.3" y1="92" x2="779.3" y2="422" stroke="#e5e7eb"/>
<text x="779.3" y="442.0" font-size="11" font-family="Arial, sans-serif" text-anchor="middle" fill="#111827">32B</text>
<line x1="848.2" y1="92" x2="848.2" y2="422" stroke="#e5e7eb"/>
<text x="848.2" y="442.0" font-size="11" font-family="Arial, sans-serif" text-anchor="middle" fill="#111827">72B</text>
<path d="M 543.9 178.7 L 602.7 173.3 L 661.6 167.6 L 773.9 168.2 L 779.3 167.1" fill="none" stroke="#2563eb" stroke-width="2.4"/>
<circle cx="543.9" cy="178.7" r="3.8" fill="#2563eb"/>
<circle cx="602.7" cy="173.3" r="3.8" fill="#2563eb"/>
<circle cx="661.6" cy="167.6" r="3.8" fill="#2563eb"/>
<circle cx="773.9" cy="168.2" r="3.8" fill="#2563eb"/>
<circle cx="779.3" cy="167.1" r="3.8" fill="#2563eb"/>
<path d="M 578.3 191.6 L 650.3 172.3 L 779.3 200.0 L 848.2 167.2" fill="none" stroke="#0f766e" stroke-width="2.4"/>
<circle cx="578.3" cy="191.6" r="3.8" fill="#0f766e"/>
<circle cx="650.3" cy="172.3" r="3.8" fill="#0f766e"/>
<circle cx="779.3" cy="200.0" r="3.8" fill="#0f766e"/>
<circle cx="848.2" cy="167.2" r="3.8" fill="#0f766e"/>
<path d="M 543.9 186.5 L 602.7 384.2 L 671.6 172.2 L 764.9 268.6 L 786.9 173.3" fill="none" stroke="#7c3aed" stroke-width="2.4"/>
<circle cx="543.9" cy="186.5" r="3.8" fill="#7c3aed"/>
<circle cx="602.7" cy="384.2" r="3.8" fill="#7c3aed"/>
<circle cx="671.6" cy="172.2" r="3.8" fill="#7c3aed"/>
<circle cx="764.9" cy="268.6" r="3.8" fill="#7c3aed"/>
<circle cx="786.9" cy="173.3" r="3.8" fill="#7c3aed"/>
<path d="M 543.9 205.9 L 602.7 195.3 L 661.6 190.4 L 793.9 192.0" fill="none" stroke="#dc2626" stroke-width="2.4"/>
<circle cx="543.9" cy="205.9" r="3.8" fill="#dc2626"/>
<circle cx="602.7" cy="195.3" r="3.8" fill="#dc2626"/>
<circle cx="661.6" cy="190.4" r="3.8" fill="#dc2626"/>
<circle cx="793.9" cy="192.0" r="3.8" fill="#dc2626"/>
<path d="M 485.0 216.4 L 543.9 208.7 L 661.6 188.8 L 709.1 199.8 L 793.9 199.1 L 855.0 193.8" fill="none" stroke="#ea580c" stroke-width="2.4"/>
<circle cx="485.0" cy="216.4" r="3.8" fill="#ea580c"/>
<circle cx="543.9" cy="208.7" r="3.8" fill="#ea580c"/>
<circle cx="661.6" cy="188.8" r="3.8" fill="#ea580c"/>
<circle cx="709.1" cy="199.8" r="3.8" fill="#ea580c"/>
<circle cx="793.9" cy="199.1" r="3.8" fill="#ea580c"/>
<circle cx="855.0" cy="193.8" r="3.8" fill="#ea580c"/>
<path d="M 602.7 287.2 L 696.0 230.1 L 764.9 234.0" fill="none" stroke="#16a34a" stroke-width="2.4"/>
<circle cx="602.7" cy="287.2" r="3.8" fill="#16a34a"/>
<circle cx="696.0" cy="230.1" r="3.8" fill="#16a34a"/>
<circle cx="764.9" cy="234.0" r="3.8" fill="#16a34a"/>
<path d="M 485.0 208.1 L 543.9 215.7 L 602.7 192.1 L 661.6 211.8 L 720.5 227.4 L 784.5 244.0" fill="none" stroke="#9333ea" stroke-width="2.4"/>
<circle cx="485.0" cy="208.1" r="3.8" fill="#9333ea"/>
<circle cx="543.9" cy="215.7" r="3.8" fill="#9333ea"/>
<circle cx="602.7" cy="192.1" r="3.8" fill="#9333ea"/>
<circle cx="661.6" cy="211.8" r="3.8" fill="#9333ea"/>
<circle cx="720.5" cy="227.4" r="3.8" fill="#9333ea"/>
<circle cx="784.5" cy="244.0" r="3.8" fill="#9333ea"/>
<path d="M 650.3 406.7 L 702.8 406.4" fill="none" stroke="#475569" stroke-width="2.4"/>
<circle cx="650.3" cy="406.7" r="3.8" fill="#475569"/>
<circle cx="702.8" cy="406.4" r="3.8" fill="#475569"/>
<path d="M 661.6 388.8 L 779.3 371.7" fill="none" stroke="#64748b" stroke-width="2.4"/>
<circle cx="661.6" cy="388.8" r="3.8" fill="#64748b"/>
<circle cx="779.3" cy="371.7" r="3.8" fill="#64748b"/>
<path d="M 661.6 372.0 L 761.7 385.7" fill="none" stroke="#64748b" stroke-width="2.4"/>
<circle cx="661.6" cy="372.0" r="3.8" fill="#64748b"/>
<circle cx="761.7" cy="385.7" r="3.8" fill="#64748b"/>
<text x="670.0" y="470.0" font-size="12" font-family="Arial, sans-serif" text-anchor="middle" fill="#111827">Parameters</text>
<rect x="900" y="92" width="370" height="330" fill="#fafafa" stroke="#d1d5db"/>
<text x="900.0" y="76.0" font-size="16" font-family="Arial, sans-serif" text-anchor="start" fill="#111827">Receipt KIE</text>
<line x1="900" y1="422.0" x2="1270" y2="422.0" stroke="#e5e7eb"/>
<text x="890.0" y="426.0" font-size="11" font-family="Arial, sans-serif" text-anchor="end" fill="#111827">0.00</text>
<line x1="900" y1="339.5" x2="1270" y2="339.5" stroke="#e5e7eb"/>
<text x="890.0" y="343.5" font-size="11" font-family="Arial, sans-serif" text-anchor="end" fill="#111827">0.25</text>
<line x1="900" y1="257.0" x2="1270" y2="257.0" stroke="#e5e7eb"/>
<text x="890.0" y="261.0" font-size="11" font-family="Arial, sans-serif" text-anchor="end" fill="#111827">0.50</text>
<line x1="900" y1="174.5" x2="1270" y2="174.5" stroke="#e5e7eb"/>
<text x="890.0" y="178.5" font-size="11" font-family="Arial, sans-serif" text-anchor="end" fill="#111827">0.75</text>
<line x1="900" y1="92.0" x2="1270" y2="92.0" stroke="#e5e7eb"/>
<text x="890.0" y="96.0" font-size="11" font-family="Arial, sans-serif" text-anchor="end" fill="#111827">1.00</text>
<line x1="900.0" y1="92" x2="900.0" y2="422" stroke="#e5e7eb"/>
<text x="900.0" y="442.0" font-size="11" font-family="Arial, sans-serif" text-anchor="middle" fill="#111827">1B</text>
<line x1="958.9" y1="92" x2="958.9" y2="422" stroke="#e5e7eb"/>
<text x="958.9" y="442.0" font-size="11" font-family="Arial, sans-serif" text-anchor="middle" fill="#111827">2B</text>
<line x1="1017.7" y1="92" x2="1017.7" y2="422" stroke="#e5e7eb"/>
<text x="1017.7" y="442.0" font-size="11" font-family="Arial, sans-serif" text-anchor="middle" fill="#111827">4B</text>
<line x1="1076.6" y1="92" x2="1076.6" y2="422" stroke="#e5e7eb"/>
<text x="1076.6" y="442.0" font-size="11" font-family="Arial, sans-serif" text-anchor="middle" fill="#111827">8B</text>
<line x1="1135.5" y1="92" x2="1135.5" y2="422" stroke="#e5e7eb"/>
<text x="1135.5" y="442.0" font-size="11" font-family="Arial, sans-serif" text-anchor="middle" fill="#111827">16B</text>
<line x1="1194.3" y1="92" x2="1194.3" y2="422" stroke="#e5e7eb"/>
<text x="1194.3" y="442.0" font-size="11" font-family="Arial, sans-serif" text-anchor="middle" fill="#111827">32B</text>
<line x1="1263.2" y1="92" x2="1263.2" y2="422" stroke="#e5e7eb"/>
<text x="1263.2" y="442.0" font-size="11" font-family="Arial, sans-serif" text-anchor="middle" fill="#111827">72B</text>
<path d="M 958.9 326.9 L 1017.7 306.9 L 1076.6 295.8 L 1188.9 338.2 L 1194.3 291.0" fill="none" stroke="#2563eb" stroke-width="2.4"/>
<circle cx="958.9" cy="326.9" r="3.8" fill="#2563eb"/>
<circle cx="1017.7" cy="306.9" r="3.8" fill="#2563eb"/>
<circle cx="1076.6" cy="295.8" r="3.8" fill="#2563eb"/>
<circle cx="1188.9" cy="338.2" r="3.8" fill="#2563eb"/>
<circle cx="1194.3" cy="291.0" r="3.8" fill="#2563eb"/>
<path d="M 993.3 316.6 L 1065.3 288.3 L 1194.3 291.2 L 1263.2 288.4" fill="none" stroke="#0f766e" stroke-width="2.4"/>
<circle cx="993.3" cy="316.6" r="3.8" fill="#0f766e"/>
<circle cx="1065.3" cy="288.3" r="3.8" fill="#0f766e"/>
<circle cx="1194.3" cy="291.2" r="3.8" fill="#0f766e"/>
<circle cx="1263.2" cy="288.4" r="3.8" fill="#0f766e"/>
<path d="M 958.9 341.0 L 1017.7 298.6 L 1086.6 295.4 L 1179.9 288.8 L 1201.9 285.2" fill="none" stroke="#7c3aed" stroke-width="2.4"/>
<circle cx="958.9" cy="341.0" r="3.8" fill="#7c3aed"/>
<circle cx="1017.7" cy="298.6" r="3.8" fill="#7c3aed"/>
<circle cx="1086.6" cy="295.4" r="3.8" fill="#7c3aed"/>
<circle cx="1179.9" cy="288.8" r="3.8" fill="#7c3aed"/>
<circle cx="1201.9" cy="285.2" r="3.8" fill="#7c3aed"/>
<path d="M 958.9 311.6 L 1017.7 309.1 L 1076.6 291.2 L 1208.9 294.1" fill="none" stroke="#dc2626" stroke-width="2.4"/>
<circle cx="958.9" cy="311.6" r="3.8" fill="#dc2626"/>
<circle cx="1017.7" cy="309.1" r="3.8" fill="#dc2626"/>
<circle cx="1076.6" cy="291.2" r="3.8" fill="#dc2626"/>
<circle cx="1208.9" cy="294.1" r="3.8" fill="#dc2626"/>
<path d="M 900.0 349.8 L 958.9 320.1 L 1076.6 300.5 L 1124.1 302.7 L 1208.9 296.0 L 1270.0 305.1" fill="none" stroke="#ea580c" stroke-width="2.4"/>
<circle cx="900.0" cy="349.8" r="3.8" fill="#ea580c"/>
<circle cx="958.9" cy="320.1" r="3.8" fill="#ea580c"/>
<circle cx="1076.6" cy="300.5" r="3.8" fill="#ea580c"/>
<circle cx="1124.1" cy="302.7" r="3.8" fill="#ea580c"/>
<circle cx="1208.9" cy="296.0" r="3.8" fill="#ea580c"/>
<circle cx="1270.0" cy="305.1" r="3.8" fill="#ea580c"/>
<path d="M 1017.7 392.3 L 1111.0 350.5 L 1179.9 356.5" fill="none" stroke="#16a34a" stroke-width="2.4"/>
<circle cx="1017.7" cy="392.3" r="3.8" fill="#16a34a"/>
<circle cx="1111.0" cy="350.5" r="3.8" fill="#16a34a"/>
<circle cx="1179.9" cy="356.5" r="3.8" fill="#16a34a"/>
<path d="M 900.0 366.1 L 958.9 310.5 L 1017.7 297.0 L 1076.6 298.0 L 1135.5 298.1 L 1199.5 303.1" fill="none" stroke="#9333ea" stroke-width="2.4"/>
<circle cx="900.0" cy="366.1" r="3.8" fill="#9333ea"/>
<circle cx="958.9" cy="310.5" r="3.8" fill="#9333ea"/>
<circle cx="1017.7" cy="297.0" r="3.8" fill="#9333ea"/>
<circle cx="1076.6" cy="298.0" r="3.8" fill="#9333ea"/>
<circle cx="1135.5" cy="298.1" r="3.8" fill="#9333ea"/>
<circle cx="1199.5" cy="303.1" r="3.8" fill="#9333ea"/>
<path d="M 1065.3 422.0 L 1117.8 422.0" fill="none" stroke="#475569" stroke-width="2.4"/>
<circle cx="1065.3" cy="422.0" r="3.8" fill="#475569"/>
<circle cx="1117.8" cy="422.0" r="3.8" fill="#475569"/>
<path d="M 1076.6 383.9 L 1194.3 369.5" fill="none" stroke="#64748b" stroke-width="2.4"/>
<circle cx="1076.6" cy="383.9" r="3.8" fill="#64748b"/>
<circle cx="1194.3" cy="369.5" r="3.8" fill="#64748b"/>
<path d="M 1076.6 327.4 L 1176.7 325.7" fill="none" stroke="#64748b" stroke-width="2.4"/>
<circle cx="1076.6" cy="327.4" r="3.8" fill="#64748b"/>
<circle cx="1176.7" cy="325.7" r="3.8" fill="#64748b"/>
<text x="1085.0" y="470.0" font-size="12" font-family="Arial, sans-serif" text-anchor="middle" fill="#111827">Parameters</text>
<line x1="40" y1="490" x2="62" y2="490" stroke="#2563eb" stroke-width="3"/>
<text x="68.0" y="494.0" font-size="12" font-family="Arial, sans-serif" text-anchor="start" fill="#111827">Qwen3-VL</text>
<line x1="152" y1="490" x2="174" y2="490" stroke="#0f766e" stroke-width="3"/>
<text x="180.0" y="494.0" font-size="12" font-family="Arial, sans-serif" text-anchor="start" fill="#111827">Qwen2.5-VL</text>
<line x1="280" y1="490" x2="302" y2="490" stroke="#7c3aed" stroke-width="3"/>
<text x="308.0" y="494.0" font-size="12" font-family="Arial, sans-serif" text-anchor="start" fill="#111827">Qwen3.5</text>
<line x1="388" y1="490" x2="410" y2="490" stroke="#dc2626" stroke-width="3"/>
<text x="416.0" y="494.0" font-size="12" font-family="Arial, sans-serif" text-anchor="start" fill="#111827">InternVL3.5</text>
<line x1="524" y1="490" x2="546" y2="490" stroke="#ea580c" stroke-width="3"/>
<text x="552.0" y="494.0" font-size="12" font-family="Arial, sans-serif" text-anchor="start" fill="#111827">InternVL3</text>
<line x1="644" y1="490" x2="666" y2="490" stroke="#16a34a" stroke-width="3"/>
<text x="672.0" y="494.0" font-size="12" font-family="Arial, sans-serif" text-anchor="start" fill="#111827">Gemma 3</text>
<line x1="752" y1="490" x2="774" y2="490" stroke="#9333ea" stroke-width="3"/>
<text x="780.0" y="494.0" font-size="12" font-family="Arial, sans-serif" text-anchor="start" fill="#111827">Ovis2</text>
<line x1="860" y1="490" x2="882" y2="490" stroke="#475569" stroke-width="3"/>
<text x="888.0" y="494.0" font-size="12" font-family="Arial, sans-serif" text-anchor="start" fill="#111827">LLaVA 1.5</text>
<line x1="980" y1="490" x2="1002" y2="490" stroke="#64748b" stroke-width="3"/>
<text x="1008.0" y="494.0" font-size="12" font-family="Arial, sans-serif" text-anchor="start" fill="#111827">Aya Vision</text>
<line x1="1108" y1="490" x2="1130" y2="490" stroke="#64748b" stroke-width="3"/>
<text x="1136.0" y="494.0" font-size="12" font-family="Arial, sans-serif" text-anchor="start" fill="#111827">InternVL2</text>
</svg>
